<svg width="100" height="37" viewBox="0 0 100 37" fill="none" xmlns="http://www.w3.org/2000/svg">
<rect width="100" height="37" rx="18.5" fill="#2D3134"/>
<path d="M17.233 24H20.9119C23.3182 24 24.3125 22.8267 24.3125 21.2955C24.3125 19.6847 23.1989 18.8097 22.2642 18.75V18.6506C23.1392 18.4119 23.9148 17.8352 23.9148 16.5227C23.9148 15.0312 22.9205 13.8182 20.7926 13.8182H17.233V24ZM18.4659 22.9062V19.3665H20.9716C22.304 19.3665 23.1392 20.2614 23.1392 21.2955C23.1392 22.1903 22.5227 22.9062 20.9119 22.9062H18.4659ZM18.4659 18.2926V14.9119H20.7926C22.1449 14.9119 22.7415 15.6278 22.7415 16.5227C22.7415 17.5966 21.8665 18.2926 20.7528 18.2926H18.4659ZM29.2816 24.1591C31.3498 24.1591 32.7418 22.5881 32.7418 20.2216C32.7418 17.8352 31.3498 16.2642 29.2816 16.2642C27.2134 16.2642 25.8214 17.8352 25.8214 20.2216C25.8214 22.5881 27.2134 24.1591 29.2816 24.1591ZM29.2816 23.1051C27.7106 23.1051 26.9947 21.7528 26.9947 20.2216C26.9947 18.6903 27.7106 17.3182 29.2816 17.3182C30.8526 17.3182 31.5685 18.6903 31.5685 20.2216C31.5685 21.7528 30.8526 23.1051 29.2816 23.1051ZM37.6351 24.1591C39.7033 24.1591 41.0953 22.5881 41.0953 20.2216C41.0953 17.8352 39.7033 16.2642 37.6351 16.2642C35.5669 16.2642 34.1749 17.8352 34.1749 20.2216C34.1749 22.5881 35.5669 24.1591 37.6351 24.1591ZM37.6351 23.1051C36.0641 23.1051 35.3482 21.7528 35.3482 20.2216C35.3482 18.6903 36.0641 17.3182 37.6351 17.3182C39.2061 17.3182 39.9221 18.6903 39.9221 20.2216C39.9221 21.7528 39.2061 23.1051 37.6351 23.1051ZM42.8864 24H44.0597V21.1413L44.88 20.3807L47.7386 24H49.2301L45.7649 19.625L48.9915 16.3636H47.5398L44.1989 19.7642H44.0597V13.8182H42.8864V24ZM62.6721 13.8182H61.459V21.8324H61.3596L55.7914 13.8182H54.5982V24H55.8311V16.0057H55.9306L61.4789 24H62.6721V13.8182ZM68.0824 24.1591C70.1506 24.1591 71.5426 22.5881 71.5426 20.2216C71.5426 17.8352 70.1506 16.2642 68.0824 16.2642C66.0142 16.2642 64.6222 17.8352 64.6222 20.2216C64.6222 22.5881 66.0142 24.1591 68.0824 24.1591ZM68.0824 23.1051C66.5114 23.1051 65.7955 21.7528 65.7955 20.2216C65.7955 18.6903 66.5114 17.3182 68.0824 17.3182C69.6534 17.3182 70.3693 18.6903 70.3693 20.2216C70.3693 21.7528 69.6534 23.1051 68.0824 23.1051ZM74.804 24H75.9574L77.6278 18.1335H77.7472L79.4176 24H80.571L82.8977 16.3636H81.6648L80.0142 22.1903H79.9347L78.3239 16.3636H77.071L75.4403 22.2102H75.3608L73.7102 16.3636H72.4773L74.804 24Z" fill="white"/>
</svg>
