<svg width="100" height="37" viewBox="0 0 100 37" fill="none" xmlns="http://www.w3.org/2000/svg">
<rect x="0.5" y="0.5" width="99" height="36" rx="18" stroke="#2D3134"/>
<path d="M17.233 24V13.8182H20.7926C21.5019 13.8182 22.0869 13.9408 22.5476 14.1861C23.0083 14.428 23.3513 14.7545 23.5767 15.1655C23.8021 15.5732 23.9148 16.0256 23.9148 16.5227C23.9148 16.9602 23.8369 17.3215 23.6811 17.6065C23.5286 17.8916 23.3265 18.117 23.0746 18.2827C22.826 18.4484 22.5559 18.571 22.2642 18.6506V18.75C22.5758 18.7699 22.889 18.8793 23.2038 19.0781C23.5187 19.277 23.7822 19.562 23.9943 19.9332C24.2064 20.3045 24.3125 20.7585 24.3125 21.2955C24.3125 21.8059 24.1965 22.2649 23.9645 22.6726C23.7325 23.0803 23.3662 23.4034 22.8658 23.642C22.3653 23.8807 21.714 24 20.9119 24H17.233ZM18.4659 22.9062H20.9119C21.7173 22.9062 22.2891 22.7505 22.6271 22.4389C22.9685 22.1241 23.1392 21.7429 23.1392 21.2955C23.1392 20.9508 23.0514 20.6326 22.8757 20.3409C22.7 20.0459 22.4498 19.8106 22.125 19.6349C21.8002 19.456 21.4157 19.3665 20.9716 19.3665H18.4659V22.9062ZM18.4659 18.2926H20.7528C21.1241 18.2926 21.4588 18.2197 21.7571 18.0739C22.0587 17.928 22.2973 17.7225 22.473 17.4574C22.652 17.1922 22.7415 16.8807 22.7415 16.5227C22.7415 16.0753 22.5857 15.6958 22.2741 15.3842C21.9626 15.0694 21.4688 14.9119 20.7926 14.9119H18.4659V18.2926ZM29.2816 24.1591C28.5922 24.1591 27.9873 23.995 27.467 23.6669C26.9499 23.3388 26.5456 22.8797 26.2539 22.2898C25.9656 21.6998 25.8214 21.0104 25.8214 20.2216C25.8214 19.4261 25.9656 18.7318 26.2539 18.1385C26.5456 17.5452 26.9499 17.0845 27.467 16.7564C27.9873 16.4283 28.5922 16.2642 29.2816 16.2642C29.971 16.2642 30.5742 16.4283 31.0913 16.7564C31.6116 17.0845 32.016 17.5452 32.3043 18.1385C32.596 18.7318 32.7418 19.4261 32.7418 20.2216C32.7418 21.0104 32.596 21.6998 32.3043 22.2898C32.016 22.8797 31.6116 23.3388 31.0913 23.6669C30.5742 23.995 29.971 24.1591 29.2816 24.1591ZM29.2816 23.1051C29.8053 23.1051 30.2362 22.9709 30.5742 22.7024C30.9123 22.4339 31.1625 22.081 31.3249 21.6435C31.4873 21.206 31.5685 20.732 31.5685 20.2216C31.5685 19.7112 31.4873 19.2356 31.3249 18.7947C31.1625 18.3539 30.9123 17.9976 30.5742 17.7259C30.2362 17.4541 29.8053 17.3182 29.2816 17.3182C28.7579 17.3182 28.3271 17.4541 27.989 17.7259C27.6509 17.9976 27.4007 18.3539 27.2383 18.7947C27.0759 19.2356 26.9947 19.7112 26.9947 20.2216C26.9947 20.732 27.0759 21.206 27.2383 21.6435C27.4007 22.081 27.6509 22.4339 27.989 22.7024C28.3271 22.9709 28.7579 23.1051 29.2816 23.1051ZM37.6351 24.1591C36.9457 24.1591 36.3409 23.995 35.8205 23.6669C35.3034 23.3388 34.8991 22.8797 34.6074 22.2898C34.3191 21.6998 34.1749 21.0104 34.1749 20.2216C34.1749 19.4261 34.3191 18.7318 34.6074 18.1385C34.8991 17.5452 35.3034 17.0845 35.8205 16.7564C36.3409 16.4283 36.9457 16.2642 37.6351 16.2642C38.3245 16.2642 38.9277 16.4283 39.4448 16.7564C39.9651 17.0845 40.3695 17.5452 40.6578 18.1385C40.9495 18.7318 41.0953 19.4261 41.0953 20.2216C41.0953 21.0104 40.9495 21.6998 40.6578 22.2898C40.3695 22.8797 39.9651 23.3388 39.4448 23.6669C38.9277 23.995 38.3245 24.1591 37.6351 24.1591ZM37.6351 23.1051C38.1588 23.1051 38.5897 22.9709 38.9277 22.7024C39.2658 22.4339 39.516 22.081 39.6784 21.6435C39.8409 21.206 39.9221 20.732 39.9221 20.2216C39.9221 19.7112 39.8409 19.2356 39.6784 18.7947C39.516 18.3539 39.2658 17.9976 38.9277 17.7259C38.5897 17.4541 38.1588 17.3182 37.6351 17.3182C37.1114 17.3182 36.6806 17.4541 36.3425 17.7259C36.0044 17.9976 35.7542 18.3539 35.5918 18.7947C35.4294 19.2356 35.3482 19.7112 35.3482 20.2216C35.3482 20.732 35.4294 21.206 35.5918 21.6435C35.7542 22.081 36.0044 22.4339 36.3425 22.7024C36.6806 22.9709 37.1114 23.1051 37.6351 23.1051ZM43.9801 21.2159L43.9602 19.7642H44.1989L47.5398 16.3636H48.9915L45.4318 19.9631H45.3324L43.9801 21.2159ZM42.8864 24V13.8182H44.0597V24H42.8864ZM47.7386 24L44.7557 20.2216L45.5909 19.4062L49.2301 24H47.7386ZM62.6721 13.8182V24H61.4789L55.9306 16.0057H55.8311V24H54.5982V13.8182H55.7914L61.3596 21.8324H61.459V13.8182H62.6721ZM68.0824 24.1591C67.393 24.1591 66.7881 23.995 66.2678 23.6669C65.7507 23.3388 65.3464 22.8797 65.0547 22.2898C64.7663 21.6998 64.6222 21.0104 64.6222 20.2216C64.6222 19.4261 64.7663 18.7318 65.0547 18.1385C65.3464 17.5452 65.7507 17.0845 66.2678 16.7564C66.7881 16.4283 67.393 16.2642 68.0824 16.2642C68.7718 16.2642 69.375 16.4283 69.892 16.7564C70.4124 17.0845 70.8168 17.5452 71.1051 18.1385C71.3968 18.7318 71.5426 19.4261 71.5426 20.2216C71.5426 21.0104 71.3968 21.6998 71.1051 22.2898C70.8168 22.8797 70.4124 23.3388 69.892 23.6669C69.375 23.995 68.7718 24.1591 68.0824 24.1591ZM68.0824 23.1051C68.6061 23.1051 69.0369 22.9709 69.375 22.7024C69.7131 22.4339 69.9633 22.081 70.1257 21.6435C70.2881 21.206 70.3693 20.732 70.3693 20.2216C70.3693 19.7112 70.2881 19.2356 70.1257 18.7947C69.9633 18.3539 69.7131 17.9976 69.375 17.7259C69.0369 17.4541 68.6061 17.3182 68.0824 17.3182C67.5587 17.3182 67.1278 17.4541 66.7898 17.7259C66.4517 17.9976 66.2015 18.3539 66.0391 18.7947C65.8767 19.2356 65.7955 19.7112 65.7955 20.2216C65.7955 20.732 65.8767 21.206 66.0391 21.6435C66.2015 22.081 66.4517 22.4339 66.7898 22.7024C67.1278 22.9709 67.5587 23.1051 68.0824 23.1051ZM74.804 24L72.4773 16.3636H73.7102L75.3608 22.2102H75.4403L77.071 16.3636H78.3239L79.9347 22.1903H80.0142L81.6648 16.3636H82.8977L80.571 24H79.4176L77.7472 18.1335H77.6278L75.9574 24H74.804Z" fill="#2D3134"/>
</svg>
